<svg xmlns="http://www.w3.org/2000/svg" viewBox="0 0 145.46 141.88"><defs><style>.cls-1{fill:#fff;}</style></defs><title>Asset 5</title><g id="Layer_2" data-name="Layer 2"><g id="Layer_1-2" data-name="Layer 1"><path class="cls-1" d="M86.26,41.87,60.91,25a1.55,1.55,0,0,0-.86-.26,1.63,1.63,0,0,0-.72.18,1.54,1.54,0,0,0-.81,1.36v33.8a1.54,1.54,0,0,0,.81,1.36,1.57,1.57,0,0,0,1.58-.08l25.35-16.9a1.54,1.54,0,0,0,0-2.56Z"/><path class="cls-1" d="M140.34,0H5.12A5.12,5.12,0,0,0,0,5.12V81.18A5.12,5.12,0,0,0,5.12,86.3H140.34a5.12,5.12,0,0,0,5.12-5.12V5.12A5.12,5.12,0,0,0,140.34,0ZM90.24,50.4,64.88,67.3a8.7,8.7,0,0,1-13.53-7.25V26.25A8.69,8.69,0,0,1,64.88,19l25.36,16.9a8.72,8.72,0,0,1,0,14.49Z"/><path class="cls-1" d="M94.75,106.28v-8.2A5.12,5.12,0,0,0,89.63,93H55.83a5.12,5.12,0,0,0-5.12,5.12v8.2H64.28a8.72,8.72,0,0,1,8.45,6.65,8.72,8.72,0,0,1,8.45-6.65Z"/><path class="cls-1" d="M115,113.45H81.18A1.53,1.53,0,0,0,79.65,115v25.35a1.53,1.53,0,0,0,1.53,1.54H115a1.54,1.54,0,0,0,1.53-1.54V115A1.54,1.54,0,0,0,115,113.45Z"/><path class="cls-1" d="M64.28,113.45H30.48A1.54,1.54,0,0,0,28.94,115v25.35a1.54,1.54,0,0,0,1.54,1.54h33.8a1.54,1.54,0,0,0,1.54-1.54V115A1.54,1.54,0,0,0,64.28,113.45Z"/><path class="cls-1" d="M140.34,93h-33.8a5.13,5.13,0,0,0-5.13,5.12v8.2H115a8.71,8.71,0,0,1,8.7,8.71v13.57h16.65a5.12,5.12,0,0,0,5.12-5.12V98.08A5.12,5.12,0,0,0,140.34,93Z"/><path class="cls-1" d="M44.05,106.28v-8.2A5.13,5.13,0,0,0,38.93,93H5.12A5.12,5.12,0,0,0,0,98.08v25.36a5.12,5.12,0,0,0,5.12,5.12H21.77V115a8.72,8.72,0,0,1,8.71-8.71Z"/></g></g></svg>