<svg xmlns="http://www.w3.org/2000/svg" viewBox="0 0 173.07 141.84"><defs><style>.cls-1{fill:#fff;}</style></defs><title>Asset 7</title><g id="Layer_2" data-name="Layer 2"><g id="Layer_1-2" data-name="Layer 1"><path class="cls-1" d="M167.62,130.92H5.46a5.46,5.46,0,0,0,0,10.92H167.62a5.46,5.46,0,0,0,0-10.92Z"/><path class="cls-1" d="M19.16,58.85v54.21H15.67a5.36,5.36,0,0,0-5.37,5.36v3.49H162.77v-3.49a5.37,5.37,0,0,0-5.37-5.36h-3.49V58.85H125.46v54.21h-24.7V58.85H72.31v54.21H47.61V58.85Z"/><path class="cls-1" d="M10.83,49.84H162.25a5.37,5.37,0,0,0,2.23-10.25L89,.6a5.36,5.36,0,0,0-4.93,0L8.36,39.71a5.36,5.36,0,0,0,2.47,10.13Z"/></g></g></svg>