<svg xmlns="http://www.w3.org/2000/svg" viewBox="0 0 145.37 145.37"><defs><style>.cls-1{fill:#fff;}</style></defs><title>Asset 6</title><g id="Layer_2" data-name="Layer 2"><g id="Layer_1-2" data-name="Layer 1"><path class="cls-1" d="M112.06,0A33.36,33.36,0,0,0,79.32,27.26H66.05a33.32,33.32,0,1,0,0,12.11H79.32A33.27,33.27,0,0,0,133.26,59v80.33a6.06,6.06,0,0,0,12.11,0v-106A33.35,33.35,0,0,0,112.06,0ZM33.31,54.51a21.2,21.2,0,1,1,21.2-21.2A21.23,21.23,0,0,1,33.31,54.51Zm78.75,0a21.2,21.2,0,1,1,21.2-21.2A21.22,21.22,0,0,1,112.06,54.51Z"/><path class="cls-1" d="M113.31,19.43a6.06,6.06,0,1,0,0,12.11,1.78,1.78,0,0,1,1.78,1.77,6.06,6.06,0,1,0,12.11,0A13.9,13.9,0,0,0,113.31,19.43Z"/><path class="cls-1" d="M34.57,19.43a6.06,6.06,0,1,0,0,12.11,1.77,1.77,0,0,1,1.77,1.77,6.06,6.06,0,1,0,12.12,0A13.91,13.91,0,0,0,34.57,19.43Z"/></g></g></svg>