<svg xmlns="http://www.w3.org/2000/svg" viewBox="0 0 167.73 145.37"><defs><style>.cls-1{fill:#fff;}</style></defs><title>Asset 4</title><g id="Layer_2" data-name="Layer 2"><g id="Layer_1-2" data-name="Layer 1"><path class="cls-1" d="M164.7,48.28a4.24,4.24,0,0,0-5.53-3C149.28,48.79,134,51,116.89,51c-4.17,0-8.19-.16-12.09-.41a91.22,91.22,0,0,1-9.34,24.82c.2,0,.39,0,.59,0,5.33,0,9.65-.44,9.65,3.15s-4.32,9.85-9.65,9.85a11.67,11.67,0,0,1-7.6-2.54,56.42,56.42,0,0,1-18.4,15.28c7.73,26,25.79,44.24,46.84,44.24,28.08,0,50.84-32.46,50.84-72.51A100,100,0,0,0,164.7,48.28ZM137.15,124.2a1.14,1.14,0,0,1-1.84.61c-4-3.33-10.69-5.54-18.42-5.54s-14.47,2.21-18.43,5.54a1.13,1.13,0,0,1-1.83-.61,18.67,18.67,0,0,1-.53-4.33,20.79,20.79,0,1,1,41.58,0A18.67,18.67,0,0,1,137.15,124.2Zm.57-35.81c-5.33,0-9.65-6.26-9.65-9.85s4.32-3.15,9.65-3.15,9.65,2.91,9.65,6.5S143.05,88.39,137.72,88.39Z"/><path class="cls-1" d="M101.69,27.79a99.88,99.88,0,0,0-3-24.58A4.25,4.25,0,0,0,94.53,0a4.31,4.31,0,0,0-1.41.24C83.24,3.71,68,6,50.84,6S18.45,3.71,8.56.24A4.21,4.21,0,0,0,7.16,0a4.34,4.34,0,0,0-2,.5A4.27,4.27,0,0,0,3,3.21,99.88,99.88,0,0,0,0,27.79c0,40,22.76,72.5,50.84,72.5S101.69,67.83,101.69,27.79Zm-81.33,9c0-3.59,4.32-6.5,9.65-6.5s9.65,6.26,9.65,9.85S35.34,43.3,30,43.3,20.36,40.39,20.36,36.8ZM50.84,86.59A20.79,20.79,0,0,1,30.05,65.8a18.67,18.67,0,0,1,.53-4.33,1.15,1.15,0,0,1,.75-.82,1.16,1.16,0,0,1,1.09.21c4,3.32,10.69,5.54,18.42,5.54s14.47-2.22,18.43-5.54a1.11,1.11,0,0,1,1.09-.21,1.12,1.12,0,0,1,.74.82,18.67,18.67,0,0,1,.53,4.33A20.79,20.79,0,0,1,50.84,86.59ZM62,40.15c0-3.59,4.32-9.85,9.65-9.85s9.65,2.91,9.65,6.5S77,43.3,71.68,43.3,62,43.74,62,40.15Z"/></g></g></svg>