<svg xmlns="http://www.w3.org/2000/svg" viewBox="0 0 209.9 41.94"><defs><style>.cls-1{fill:#fff;}.cls-2{fill:#aeb339;}.cls-3{fill:#cbd93e;}.cls-4{fill:#e4eaa4;}.cls-5{fill:#b7bc3f;}.cls-6{fill:#d6e163;}.cls-7{fill:#edf1bf;}</style></defs><title>Asset 3</title><g id="Layer_2" data-name="Layer 2"><g id="Layer_1-2" data-name="Layer 1"><path class="cls-1" d="M58.14,41V1.18H64v34H86.08V41Z"/><path class="cls-1" d="M124,28.9a10.85,10.85,0,0,1-1.36,5.42,12.55,12.55,0,0,1-3.74,4.12A18.14,18.14,0,0,1,113.27,41a26.5,26.5,0,0,1-7.06.91,18.62,18.62,0,0,1-4.56-.57,22,22,0,0,1-4.41-1.62,21.49,21.49,0,0,1-7.43-6L94,29.81c.54.64,1.18,1.33,1.92,2.06A15.41,15.41,0,0,0,102,35.44a13.69,13.69,0,0,0,4.24.62,21.63,21.63,0,0,0,4.33-.43,13.42,13.42,0,0,0,3.79-1.3A7.87,7.87,0,0,0,117,32.1a5.28,5.28,0,0,0,1-3.22,5.27,5.27,0,0,0-1-3.51,6.06,6.06,0,0,0-2.7-1.79,14.11,14.11,0,0,0-3.79-.66c-1.43-.07-2.85-.11-4.28-.11q-7.2,0-10.95-2.56T91.52,12.5a10.63,10.63,0,0,1,1.1-4.67,12.69,12.69,0,0,1,3-4A15.13,15.13,0,0,1,100.31,1a16.36,16.36,0,0,1,5.9-1,25.39,25.39,0,0,1,8.5,1.39,20.6,20.6,0,0,1,7.53,4.91l-3.63,4.28a34.51,34.51,0,0,0-3-2.19,15.52,15.52,0,0,0-2.86-1.47,13.85,13.85,0,0,0-3-.8,23.28,23.28,0,0,0-3.5-.24,9.34,9.34,0,0,0-3.2.53,9.06,9.06,0,0,0-2.62,1.44A6.92,6.92,0,0,0,98.63,10,5.19,5.19,0,0,0,98,12.45a4.14,4.14,0,0,0,.37,1.73,3.57,3.57,0,0,0,1.34,1.47,7.76,7.76,0,0,0,2.59,1,19.2,19.2,0,0,0,4.19.37,38.76,38.76,0,0,1,8.63.8,14.07,14.07,0,0,1,5.37,2.33,8,8,0,0,1,2.75,3.74A14.94,14.94,0,0,1,124,28.9Z"/><path class="cls-1" d="M143.88.48h6.41L169.46,41H163l-2.62-5.83H148.2a27.76,27.76,0,0,0-4.83.38,19.27,19.27,0,0,0-3.61,1,9.84,9.84,0,0,0-2.4,1.28,4.11,4.11,0,0,0-1.23,1.34l-1,1.87h-6.3L146.07,5.4Zm13.83,28.85L149,12.5l-8.81,19.07A9.38,9.38,0,0,1,143.72,30a25.9,25.9,0,0,1,6.62-.67Z"/><path class="cls-1" d="M205.26,10.68A16.66,16.66,0,0,0,200,7.16a16,16,0,0,0-6.41-1.28A16.94,16.94,0,0,0,187.41,7a14.52,14.52,0,0,0-5,3.17A14.88,14.88,0,0,0,179.11,15a15.49,15.49,0,0,0-1.21,6.16,13.8,13.8,0,0,0,1.29,5.95,14.56,14.56,0,0,0,3.47,4.72,16.62,16.62,0,0,0,5,3.09,16,16,0,0,0,6,1.12,15.5,15.5,0,0,0,7.16-1.67,16.32,16.32,0,0,0,5.5-4.53l3.58,4.86A21.89,21.89,0,0,1,202.66,40a22.23,22.23,0,0,1-17.49.27,21,21,0,0,1-11.33-11.35,21.5,21.5,0,0,1-1.65-8.42,19.3,19.3,0,0,1,1.73-8.14,20.49,20.49,0,0,1,4.71-6.52,22.16,22.16,0,0,1,15-5.85,21.31,21.31,0,0,1,8.47,1.68A21.81,21.81,0,0,1,209,6.3Z"/><rect class="cls-2" x="25.08" y="1.31" width="29.27" height="10.45"/><rect class="cls-3" x="12.54" y="15.94" width="41.81" height="10.45"/><rect class="cls-4" y="30.58" width="54.35" height="10.45"/><path class="cls-5" d="M25.08,11.76V1.31H54.35S34.38,4.64,25.08,11.76Z"/><path class="cls-6" d="M12.54,26.39V15.94H41.81S21.83,19.27,12.54,26.39Z"/><path class="cls-7" d="M0,41V30.58H29.27S9.29,33.9,0,41Z"/></g></g></svg>